<?xml version="1.0" encoding="UTF-8" standalone="no"?>
<!-- Created with Inkscape (http://www.inkscape.org/) -->

<svg
   xmlns:dc="http://purl.org/dc/elements/1.1/"
   xmlns:cc="http://creativecommons.org/ns#"
   xmlns:rdf="http://www.w3.org/1999/02/22-rdf-syntax-ns#"
   xmlns:svg="http://www.w3.org/2000/svg"
   xmlns="http://www.w3.org/2000/svg"
   xmlns:xlink="http://www.w3.org/1999/xlink"
   xmlns:sodipodi="http://sodipodi.sourceforge.net/DTD/sodipodi-0.dtd"
   xmlns:inkscape="http://www.inkscape.org/namespaces/inkscape"
   id="svg8"
   version="1.1"
   viewBox="0 0 67.733333 67.733333"
   height="256"
   width="256"
   inkscape:version="0.92.3 (2405546, 2018-03-11)"
   sodipodi:docname="JkTsGetterTool.svg">
  <sodipodi:namedview
     inkscape:window-maximized="1"
     inkscape:window-y="-8"
     inkscape:window-x="-8"
     inkscape:window-height="1017"
     inkscape:window-width="1920"
     showguides="false"
     width="256px"
     units="px"
     showgrid="false"
     inkscape:current-layer="layer1"
     inkscape:document-units="mm"
     inkscape:cy="158.95988"
     inkscape:cx="51.404812"
     inkscape:zoom="0.90509668"
     inkscape:pageshadow="2"
     inkscape:pageopacity="0.0"
     borderopacity="1.0"
     bordercolor="#666666"
     pagecolor="#ffffff"
     id="base" />
  <defs
     id="defs2">
    <marker
       inkscape:stockid="Arrow1Lstart"
       orient="auto"
       refY="0.0"
       refX="0.0"
       id="marker4876"
       style="overflow:visible"
       inkscape:isstock="true">
      <path
         id="path4874"
         d="M 0.0,0.0 L 5.0,-5.0 L -12.5,0.0 L 5.0,5.0 L 0.0,0.0 z "
         style="fill-rule:evenodd;stroke:#000000;stroke-width:1pt;stroke-opacity:1;fill:#000000;fill-opacity:1"
         transform="scale(0.8) translate(12.5,0)" />
    </marker>
    <marker
       inkscape:stockid="Arrow1Lstart"
       orient="auto"
       refY="0.0"
       refX="0.0"
       id="marker4854"
       style="overflow:visible"
       inkscape:isstock="true">
      <path
         id="path4852"
         d="M 0.0,0.0 L 5.0,-5.0 L -12.5,0.0 L 5.0,5.0 L 0.0,0.0 z "
         style="fill-rule:evenodd;stroke:#000000;stroke-width:1pt;stroke-opacity:1;fill:#000000;fill-opacity:1"
         transform="scale(0.8) translate(12.5,0)" />
    </marker>
    <linearGradient
       id="linearGradient4544"
       inkscape:collect="always">
      <stop
         id="stop4540"
         offset="0"
         style="stop-color:#acd7cb;stop-opacity:1" />
      <stop
         id="stop4542"
         offset="1"
         style="stop-color:#ecfcfc;stop-opacity:1" />
    </linearGradient>
    <linearGradient
       y2="282.93503"
       x2="44.797199"
       y1="243.96187"
       x1="44.797199"
       gradientUnits="userSpaceOnUse"
       id="linearGradient4932"
       xlink:href="#linearGradient4544"
       inkscape:collect="always" />
    <filter
       id="filter5100"
       inkscape:label="Drop Shadow"
       style="color-interpolation-filters:sRGB;">
      <feFlood
         id="feFlood5090"
         result="flood"
         flood-color="rgb(0,0,0)"
         flood-opacity="0.498039" />
      <feComposite
         id="feComposite5092"
         result="composite1"
         operator="in"
         in2="SourceGraphic"
         in="flood" />
      <feGaussianBlur
         id="feGaussianBlur5094"
         result="blur"
         stdDeviation="0.5"
         in="composite1" />
      <feOffset
         id="feOffset5096"
         result="offset"
         dy="0.5"
         dx="0.5" />
      <feComposite
         id="feComposite5098"
         result="composite2"
         operator="over"
         in2="offset"
         in="SourceGraphic" />
    </filter>
    <linearGradient
       inkscape:collect="always"
       xlink:href="#linearGradient4544"
       id="linearGradient5892"
       gradientUnits="userSpaceOnUse"
       x1="44.797199"
       y1="243.96187"
       x2="44.797199"
       y2="282.93503"
       gradientTransform="matrix(3.7795276,0,0,3.7795276,-25.214453,-892.38572)" />
    <filter
       id="filter5100-2"
       inkscape:label="Drop Shadow"
       style="color-interpolation-filters:sRGB">
      <feFlood
         id="feFlood5090-4"
         result="flood"
         flood-color="rgb(0,0,0)"
         flood-opacity="0.498039" />
      <feComposite
         id="feComposite5092-6"
         result="composite1"
         operator="in"
         in2="SourceGraphic"
         in="flood" />
      <feGaussianBlur
         id="feGaussianBlur5094-6"
         result="blur"
         stdDeviation="0.5"
         in="composite1" />
      <feOffset
         id="feOffset5096-0"
         result="offset"
         dy="0.5"
         dx="0.5" />
      <feComposite
         id="feComposite5098-7"
         result="composite2"
         operator="over"
         in2="offset"
         in="SourceGraphic" />
    </filter>
  </defs>
  <metadata
     id="metadata5">
    <rdf:RDF>
      <cc:Work
         rdf:about="">
        <dc:format>image/svg+xml</dc:format>
        <dc:type
           rdf:resource="http://purl.org/dc/dcmitype/StillImage" />
        <dc:title></dc:title>
      </cc:Work>
    </rdf:RDF>
  </metadata>
  <g
     transform="translate(0,-229.26667)"
     id="layer1"
     inkscape:groupmode="layer"
     inkscape:label="レイヤー 1">
    <rect
       ry="9.6118164"
       style="stroke-width:0.26458332;fill-opacity:1;fill:#62a7bd;filter:url(#filter5100)"
       y="233.74806"
       x="4.3408203"
       height="59.221191"
       width="59.221191"
       id="rect3723" />
    <text
       id="text4550"
       y="245.84033"
       x="13.952637"
       style="font-style:normal;font-weight:normal;font-size:10.58333302px;line-height:1.25;font-family:sans-serif;letter-spacing:0px;word-spacing:0px;fill:#000000;fill-opacity:1;stroke:none;stroke-width:0.26458332"
       xml:space="preserve"><tspan
         style="stroke-width:0.26458332"
         y="255.2041"
         x="13.952637"
         id="tspan4548"
         sodipodi:role="line" /></text>
    <path
       style="color:#000000;font-style:normal;font-variant:normal;font-weight:normal;font-stretch:normal;font-size:medium;line-height:normal;font-family:sans-serif;font-variant-ligatures:normal;font-variant-position:normal;font-variant-caps:normal;font-variant-numeric:normal;font-variant-alternates:normal;font-feature-settings:normal;text-indent:0;text-align:start;text-decoration:none;text-decoration-line:none;text-decoration-style:solid;text-decoration-color:#000000;letter-spacing:normal;word-spacing:normal;text-transform:none;writing-mode:lr-tb;direction:ltr;text-orientation:mixed;dominant-baseline:auto;baseline-shift:baseline;text-anchor:start;white-space:normal;shape-padding:0;clip-rule:nonzero;display:none;visibility:visible;isolation:auto;mix-blend-mode:normal;color-interpolation:sRGB;color-interpolation-filters:linearRGB;solid-color:#000000;solid-opacity:1;fill:#649bc9;fill-opacity:1;fill-rule:nonzero;stroke:none;stroke-width:27.97228432;stroke-linecap:round;stroke-linejoin:bevel;stroke-miterlimit:4;stroke-dasharray:none;stroke-dashoffset:0;stroke-opacity:1;color-rendering:auto;image-rendering:auto;shape-rendering:auto;text-rendering:auto"
       d="m 155.75195,45.402344 0.0547,34.048828 -23.95898,-23.958984 0.008,4.607421 -13.98242,-13.982421 V 79.976562 L 93.566406,55.669922 V 164.92188 l 0.0059,0.51757 c 0,0 0.03326,6.59235 -4.746094,11.83985 -4.400908,4.8319 -10.652344,4.95312 -10.652344,4.95312 H 77.982422 55.046875 l 27.607422,27.60742 c -0.905308,0.12334 -1.607744,0.18848 -2.287109,0.24219 l -4.212891,-4.21289 H 44.761719 L 239.9668,401.07617 h 31.39453 l -49.57227,-49.57226 c 5.46426,-0.43204 18.81799,-2.64141 29.13672,-13.97071 4.17156,-4.58007 6.88077,-9.49033 8.66602,-14.04687 l 13.91406,13.91406 -0.0469,-28.0625 28.01758,28.01758 -0.0312,-19.4375 28.37696,28.37695 -28.38086,-30.29101 -28.01953,-28.01953 -0.0625,-37.68946 76.87304,76.87305 -42.02344,-44.85156 -34.85351,-34.85352 -0.0352,-20.16211 33.55274,33.55274 33.97851,-33.12305 -141.42187,-141.421876 -1.4043,1.367187 z"
       transform="matrix(0.26458333,0,0,0.26458333,0,229.26667)"
       id="path5441"
       inkscape:connector-curvature="0" />
    <g
       style="display:none"
       id="g5252">
      <path
         style="fill:none;stroke:#498cbf;stroke-width:7.40100002;stroke-linecap:round;stroke-linejoin:bevel;stroke-miterlimit:4;stroke-dasharray:none;stroke-opacity:1"
         d="m 28.456444,243.99563 v 28.90761 c 0,0 0.117423,3.19487 -2.218776,5.75985 -2.3362,2.565 -5.605614,2.52013 -5.605614,2.52013 H 14.56502"
         id="path4560-3"
         inkscape:connector-curvature="0"
         sodipodi:nodetypes="cczcc" />
      <path
         style="fill:none;stroke:#498cbf;stroke-width:7.40100002;stroke-linecap:round;stroke-linejoin:bevel;stroke-miterlimit:4;stroke-dasharray:none;stroke-opacity:1"
         d="m 38.58616,243.94321 c 0.06108,37.17049 0.06108,37.17049 0.06108,37.17049"
         id="path4566-7"
         inkscape:connector-curvature="0" />
      <path
         style="fill:none;stroke:#498cbf;stroke-width:7.40100002;stroke-linecap:round;stroke-linejoin:bevel;stroke-miterlimit:4;stroke-dasharray:none;stroke-opacity:1"
         d="m 50.53549,255.13126 -11.586303,11.29611 13.598046,14.51432"
         id="path4568-9"
         inkscape:connector-curvature="0"
         sodipodi:nodetypes="ccc" />
    </g>
    <path
       inkscape:connector-curvature="0"
       style="fill:#1c253a;fill-opacity:0.4330357;stroke-width:0.99999994;filter:url(#filter5100-2)"
       d="m 130.5375,19.536327 0.0547,34.048828 -23.95898,-23.958984 0.008,4.607421 L 92.658797,20.251171 V 54.110545 L 68.351953,29.803905 V 139.05586 l 0.0059,0.51757 c 0,0 0.03326,6.59235 -4.746094,11.83985 -4.400908,4.8319 -10.652344,4.95312 -10.652344,4.95312 H 52.767969 29.832422 l 27.607422,27.60742 c -0.905308,0.12334 -1.607745,0.18848 -2.287109,0.24219 l -4.212891,-4.21289 H 19.547266 L 54.44375,214.8996 H 178.6918 c 20.12578,0 36.32813,-16.20234 36.32813,-36.32812 v -77.32422 l -40.80469,-40.804683 -1.4043,1.367187 z"
       id="rect3723-6"
       transform="matrix(0.26458333,0,0,0.26458333,6.671324,236.11039)" />
    <path
       id="path4560"
       d="m 38.5235,240.19158 a 3.7008702,3.7008702 0 0 0 -3.638537,3.7574 l 0.06253,37.17033 a 3.7008702,3.7008702 0 1 0 7.400585,-0.0119 l -0.0093,-5.64927 7.5091,8.0145 a 3.7008702,3.7008702 0 1 0 5.400172,-5.06065 l -11.118688,-11.86697 8.990147,-8.76381 a 3.7008702,3.7008702 0 0 0 -2.60966,-6.38668 3.7008702,3.7008702 0 0 0 -2.556433,1.08778 l -5.643054,5.50044 -0.02273,-14.04514 a 3.7008702,3.7008702 0 0 0 -3.764121,-3.74603 z m -10.122898,0.0507 a 3.7008702,3.7008702 0 0 0 -3.644221,3.75377 v 28.90625 l 0.0016,0.13694 c 0,0 0.0088,1.74422 -1.255737,3.13263 -1.164407,1.27844 -2.818433,1.31051 -2.818433,1.31051 h -0.05064 -6.068364 a 3.7008702,3.7008702 0 1 0 0,7.40057 h 6.017709 c 0,0 4.882709,0.1231 8.390703,-3.72844 3.130577,-3.43717 3.193606,-7.59159 3.183268,-8.25221 V 243.996 a 3.7008702,3.7008702 0 0 0 -3.755845,-3.75377 z"
       style="color:#000000;font-style:normal;font-variant:normal;font-weight:normal;font-stretch:normal;font-size:medium;line-height:normal;font-family:sans-serif;font-variant-ligatures:normal;font-variant-position:normal;font-variant-caps:normal;font-variant-numeric:normal;font-variant-alternates:normal;font-feature-settings:normal;text-indent:0;text-align:start;text-decoration:none;text-decoration-line:none;text-decoration-style:solid;text-decoration-color:#000000;letter-spacing:normal;word-spacing:normal;text-transform:none;writing-mode:lr-tb;direction:ltr;text-orientation:mixed;dominant-baseline:auto;baseline-shift:baseline;text-anchor:start;white-space:normal;shape-padding:0;clip-rule:nonzero;display:inline;overflow:visible;visibility:visible;opacity:1;isolation:auto;mix-blend-mode:normal;color-interpolation:sRGB;color-interpolation-filters:linearRGB;solid-color:#000000;solid-opacity:1;vector-effect:none;fill:#d6e5ef;fill-opacity:1;fill-rule:nonzero;stroke:none;stroke-width:7.40100002;stroke-linecap:round;stroke-linejoin:bevel;stroke-miterlimit:4;stroke-dasharray:none;stroke-dashoffset:0;stroke-opacity:1;color-rendering:auto;image-rendering:auto;shape-rendering:auto;text-rendering:auto;enable-background:accumulate"
       inkscape:connector-curvature="0" />
  </g>
</svg>
